<svg xmlns:dc="http://purl.org/dc/elements/1.1/" xmlns:cc="http://creativecommons.org/ns#" xmlns:rdf="http://www.w3.org/1999/02/22-rdf-syntax-ns#" xmlns:svg="http://www.w3.org/2000/svg" xmlns="http://www.w3.org/2000/svg" xmlns:xlink="http://www.w3.org/1999/xlink" id="svg97229" viewBox="0 0 1024 768" height="768px" width="1024px" version="1.1">
  <metadata id="metadata97235">
    <rdf:rdf>
      <cc:work rdf:about="">
        <dc:format>image/svg+xml</dc:format>
        <dc:type rdf:resource="http://purl.org/dc/dcmitype/StillImage"></dc:type>
      </cc:work>
    </rdf:rdf>
  </metadata>
  <defs id="defs97233"></defs>

  <g id="logo-group">
     <g id="logo-center" >
       <g id="slogan" style="font-style:oblique;font-weight:300;font-size:32px;line-height:1;font-family:Raleway;font-variant-ligatures:none;text-align:center;text-anchor:middle" transform="translate(0 0)">
        <path id="path97237" style="font-style:oblique;font-weight:300;font-size:32px;line-height:1;font-family:Raleway;font-variant-ligatures:none;text-align:center;text-anchor:middle" d="m 300.69175,5.856 q 0.992,-0.16 1.664,-0.448 0.704,-0.256 1.28,-0.704 0.576,-0.448 1.088,-1.152 0.544,-0.672 1.184,-1.664 l 1.152,-1.728 -3.552,-16.8 h 1.664 l 3.008,15.072 1.536,-2.432 q 1.44,-2.304 2.4,-4 0.992,-1.728 1.696,-3.168 0.704,-1.44 1.184,-2.72 0.48,-1.312 0.864,-2.752 h 1.6 q -0.448,1.536 -0.928,2.88 -0.48,1.312 -1.216,2.816 -0.704,1.472 -1.792,3.296 -1.056,1.824 -2.656,4.352 l -2.624,4.128 q -1.12,1.792 -2.016,2.944 -0.864,1.184 -1.696,1.888 -0.832,0.736 -1.696,1.056 -0.864,0.352 -1.952,0.448 z" stroke-width="0" stroke-linejoin="miter" stroke-miterlimit="2" fill="#f1e0bc" stroke="#f1e0bc" transform="translate(5.684341886080802e-14 346.98620000000005) translate(354.326375 60.879999999999995) scale(0.75) translate(-300.69175 16.64)"></path>
        <path id="path97239" style="font-style:oblique;font-weight:300;font-size:32px;line-height:1;font-family:Raleway;font-variant-ligatures:none;text-align:center;text-anchor:middle" d="m 324.00725,0.32 q -1.44,0 -2.592,-0.544 -1.12,-0.544 -1.92,-1.472 -0.768,-0.96 -1.216,-2.208 -0.416,-1.28 -0.416,-2.72 0,-2.016 0.8,-3.872 0.832,-1.888 2.208,-3.296 1.376,-1.44 3.136,-2.272 1.792,-0.864 3.68,-0.864 1.408,0 2.528,0.576 1.152,0.544 1.92,1.504 0.8,0.928 1.216,2.208 0.448,1.28 0.448,2.72 0,1.984 -0.832,3.84 -0.8,1.856 -2.176,3.296 -1.344,1.408 -3.104,2.272 -1.76,0.832 -3.68,0.832 z m 0.288,-1.44 q 1.44,0 2.848,-0.704 1.44,-0.704 2.528,-1.888 1.12,-1.184 1.792,-2.72 0.704,-1.568 0.704,-3.264 0,-1.216 -0.352,-2.272 -0.352,-1.056 -0.992,-1.824 -0.608,-0.8 -1.504,-1.248 -0.896,-0.448 -1.952,-0.448 -1.44,0 -2.848,0.704 -1.376,0.704 -2.496,1.92 -1.12,1.184 -1.824,2.752 -0.672,1.568 -0.672,3.296 0,1.216 0.352,2.272 0.352,1.024 0.96,1.792 0.64,0.768 1.504,1.216 0.896,0.416 1.952,0.416 z" stroke-width="0" stroke-linejoin="miter" stroke-miterlimit="2" fill="#f1e0bc" stroke="#f1e0bc" transform="translate(5.684341886080802e-14 346.98620000000005) translate(367.20500000000004 60.664) scale(0.75) translate(-317.86325 16.928)"></path>
        <path id="path97241" style="font-style:oblique;font-weight:300;font-size:32px;line-height:1;font-family:Raleway;font-variant-ligatures:none;text-align:center;text-anchor:middle" d="m 340.40275,0.32 q -3.872,0 -3.872,-4.352 0,-0.64 0.064,-1.376 0.096,-0.768 0.288,-1.632 l 2.08,-9.6 h 1.568 l -1.984,9.376 q -0.352,1.6 -0.352,2.72 0,3.424 2.976,3.424 0.992,0 2.016,-0.352 1.024,-0.384 1.952,-1.024 0.96,-0.672 1.792,-1.6 0.832,-0.928 1.408,-2.048 l 2.208,-10.496 h 1.6 l -2.944,13.92 q -0.064,0.256 -0.128,0.48 -0.032,0.224 -0.032,0.288 0,0.512 0.544,0.512 l -0.32,1.44 q -0.224,0.032 -0.384,0.032 -0.16,0 -0.32,0 -0.512,0 -0.8,-0.32 -0.256,-0.352 -0.256,-0.8 0,-0.096 0,-0.224 0.032,-0.128 0.064,-0.416 0.064,-0.288 0.16,-0.8 0.128,-0.544 0.32,-1.408 -1.472,2.016 -3.52,3.136 -2.016,1.12 -4.128,1.12 z" stroke-width="0" stroke-linejoin="miter" stroke-miterlimit="2" fill="#f1e0bc" stroke="#f1e0bc" transform="translate(5.684341886080802e-14 346.98620000000005) translate(381.20562500000005 60.879999999999995) scale(0.75) translate(-336.53075 16.64)"></path>
        <path id="path97243" style="font-style:oblique;font-weight:300;font-size:32px;line-height:1;font-family:Raleway;font-variant-ligatures:none;text-align:center;text-anchor:middle" d="m 357.12275,-16.64 h 1.536 l -0.896,4.096 q 1.344,-1.92 3.072,-3.008 1.76,-1.12 3.392,-1.12 0.32,0 0.448,0.032 l -0.32,1.44 q -2.144,0.064 -4,1.344 -1.824,1.248 -2.944,3.456 l -2.208,10.4 h -1.6 z" stroke-width="0" stroke-linejoin="miter" stroke-miterlimit="2" fill="#f1e0bc" stroke="#f1e0bc" transform="translate(5.684341886080802e-14 346.98620000000005) translate(394.009625 60.855999999999995) scale(0.75) translate(-353.60275 16.672)"></path>
        <path id="path97245" style="font-style:oblique;font-weight:300;font-size:32px;line-height:1;font-family:Raleway;font-variant-ligatures:none;text-align:center;text-anchor:middle" d="m 375.31025,-16.64 h 1.504 l -0.864,3.968 q 1.408,-2.016 3.232,-3.136 1.824,-1.12 3.712,-1.12 1.952,0 2.848,1.216 0.928,1.184 0.928,3.392 1.344,-2.272 3.232,-3.424 1.92,-1.184 3.936,-1.184 1.92,0 2.784,1.088 0.864,1.056 0.864,3.04 0,1.408 -0.384,3.232 L 395.05425,0 h -1.6 l 1.984,-9.28 q 0.32,-1.568 0.32,-2.848 0,-3.328 -2.752,-3.328 -0.96,0 -1.92,0.384 -0.928,0.384 -1.792,1.056 -0.864,0.672 -1.632,1.632 -0.736,0.96 -1.28,2.112 L 384.23825,0 h -1.6 l 1.952,-9.28 q 0.192,-0.864 0.256,-1.568 0.096,-0.736 0.096,-1.344 0,-3.264 -2.72,-3.264 -0.96,0 -1.92,0.384 -0.96,0.352 -1.824,1.056 -0.864,0.672 -1.6,1.632 -0.736,0.928 -1.312,2.08 L 373.39025,0 h -1.6 z" stroke-width="0" stroke-linejoin="miter" stroke-miterlimit="2" fill="#f1e0bc" stroke="#f1e0bc" transform="translate(5.684341886080802e-14 346.98620000000005) translate(407.65025 60.664) scale(0.75) translate(-371.79025 16.928)"></path>
        <path id="path97247" style="font-style:oblique;font-weight:300;font-size:32px;line-height:1;font-family:Raleway;font-variant-ligatures:none;text-align:center;text-anchor:middle" d="m 406.51175,0.32 q -1.504,0 -2.688,-0.544 -1.152,-0.576 -1.984,-1.536 -0.8,-0.96 -1.216,-2.24 -0.416,-1.28 -0.416,-2.72 0,-1.952 0.736,-3.776 0.768,-1.856 2.112,-3.264 1.344,-1.44 3.136,-2.304 1.824,-0.864 3.936,-0.864 0.992,0 1.92,0.288 0.928,0.288 1.632,0.864 0.736,0.544 1.152,1.376 0.448,0.832 0.448,1.92 0,4.8 -8.704,4.8 -1.024,0 -2.176,-0.032 -1.12,-0.032 -2.496,-0.128 -0.032,0.256 -0.064,0.544 0,0.288 0,0.544 0,1.184 0.288,2.24 0.32,1.056 0.928,1.856 0.64,0.768 1.568,1.248 0.96,0.448 2.208,0.448 0.8,0 1.632,-0.224 0.864,-0.256 1.632,-0.672 0.768,-0.448 1.408,-1.056 0.672,-0.64 1.12,-1.408 l 1.344,0.416 q -0.576,0.96 -1.408,1.728 -0.8,0.768 -1.792,1.344 -0.96,0.544 -2.048,0.832 -1.088,0.32 -2.208,0.32 z m 3.424,-15.936 q -1.504,0 -2.784,0.576 -1.248,0.544 -2.24,1.472 -0.992,0.896 -1.696,2.08 -0.704,1.184 -1.056,2.432 1.344,0.096 2.4,0.128 1.088,0.032 2.112,0.032 1.984,0 3.328,-0.256 1.376,-0.288 2.208,-0.768 0.832,-0.48 1.184,-1.12 0.384,-0.672 0.384,-1.472 0,-0.8 -0.352,-1.376 -0.32,-0.608 -0.864,-0.992 -0.512,-0.384 -1.216,-0.544 -0.704,-0.192 -1.408,-0.192 z" stroke-width="0" stroke-linejoin="miter" stroke-miterlimit="2" fill="#f1e0bc" stroke="#f1e0bc" transform="translate(5.684341886080802e-14 346.98620000000005) translate(428.963375 60.664) scale(0.75) translate(-400.20775 16.928)"></path>
        <path id="path97249" style="font-style:oblique;font-weight:300;font-size:32px;line-height:1;font-family:Raleway;font-variant-ligatures:none;text-align:center;text-anchor:middle" d="m 420.18525,-16.64 h 1.504 l -0.864,3.968 q 0.672,-0.96 1.568,-1.728 0.896,-0.8 1.888,-1.344 1.024,-0.576 2.08,-0.864 1.088,-0.32 2.144,-0.32 1.92,0 2.752,1.024 0.832,1.024 0.832,2.976 0,0.736 -0.128,1.568 -0.096,0.832 -0.288,1.792 L 429.65725,0 h -1.6 l 1.952,-9.28 q 0.192,-0.896 0.256,-1.632 0.096,-0.736 0.096,-1.344 0,-3.2 -2.656,-3.2 -0.992,0 -2.048,0.384 -1.056,0.384 -2.048,1.088 -0.96,0.704 -1.792,1.664 -0.832,0.928 -1.376,2.016 L 418.26525,0 h -1.6 z" stroke-width="0" stroke-linejoin="miter" stroke-miterlimit="2" fill="#f1e0bc" stroke="#f1e0bc" transform="translate(5.684341886080802e-14 346.98620000000005) translate(441.30649999999997 60.664) scale(0.75) translate(-416.66525 16.928)"></path>
        <path id="path97251" style="font-style:oblique;font-weight:300;font-size:32px;line-height:1;font-family:Raleway;font-variant-ligatures:none;text-align:center;text-anchor:middle" d="m 437.90925,0.192 q -1.12,0 -1.856,-0.576 -0.736,-0.576 -0.736,-1.696 0,-0.16 0,-0.32 0.032,-0.192 0.064,-0.384 l 2.688,-12.544 h -2.24 l 0.288,-1.312 h 2.24 l 1.184,-5.696 h 1.6 l -1.184,5.696 h 3.68 l -0.288,1.312 h -3.68 l -2.4,11.264 q -0.224,1.024 -0.224,1.28 0,0.736 0.448,1.12 0.48,0.352 1.152,0.352 0.48,0 0.896,-0.096 0.448,-0.096 0.8,-0.224 0.352,-0.16 0.576,-0.256 0.256,-0.128 0.352,-0.192 l 0.192,1.28 q -0.128,0.096 -0.48,0.256 -0.32,0.16 -0.8,0.352 -0.48,0.16 -1.056,0.256 -0.576,0.128 -1.216,0.128 z" stroke-width="0" stroke-linejoin="miter" stroke-miterlimit="2" fill="#f1e0bc" stroke="#f1e0bc" transform="translate(5.684341886080802e-14 346.98620000000005) translate(455.29549999999995 56.608000000000004) scale(0.75) translate(-435.31725 22.336)"></path>
        <path id="path97253" style="font-style:oblique;font-weight:300;font-size:32px;line-height:1;font-family:Raleway;font-variant-ligatures:none;text-align:center;text-anchor:middle" d="m 449.94025,0.32 q -1.376,0 -2.496,-0.576 -1.088,-0.576 -1.856,-1.536 -0.768,-0.96 -1.184,-2.208 -0.384,-1.28 -0.384,-2.688 0,-1.952 0.768,-3.776 0.768,-1.856 2.048,-3.296 1.312,-1.44 2.976,-2.304 1.664,-0.864 3.488,-0.864 1.056,0 1.888,0.32 0.864,0.32 1.536,0.864 0.672,0.512 1.152,1.216 0.48,0.704 0.768,1.504 l 0.768,-3.616 h 1.632 l -3.072,14.336 q -0.064,0.256 -0.064,0.384 0,0.48 0.544,0.48 l -0.32,1.44 q -0.16,0.032 -0.288,0.032 -0.096,0.032 -0.192,0.032 -0.64,0 -0.992,-0.32 -0.32,-0.32 -0.32,-0.832 0,-0.096 0,-0.224 0.032,-0.16 0.064,-0.384 0.064,-0.256 0.128,-0.64 0.064,-0.384 0.192,-0.992 -1.312,1.664 -3.136,2.656 -1.824,0.992 -3.648,0.992 z m 0.576,-1.44 q 0.864,0 1.888,-0.352 1.024,-0.384 1.952,-0.992 0.96,-0.608 1.696,-1.408 0.736,-0.832 1.024,-1.728 l 1.152,-5.472 q -0.128,-0.896 -0.576,-1.696 -0.416,-0.8 -1.088,-1.408 -0.64,-0.608 -1.472,-0.96 -0.832,-0.352 -1.792,-0.352 -1.536,0 -2.912,0.768 -1.376,0.768 -2.432,2.016 -1.024,1.216 -1.664,2.752 -0.608,1.536 -0.608,3.072 0,1.152 0.352,2.208 0.352,1.056 0.992,1.856 0.64,0.768 1.536,1.248 0.896,0.448 1.952,0.448 z" stroke-width="0" stroke-linejoin="miter" stroke-miterlimit="2" fill="#f1e0bc" stroke="#f1e0bc" transform="translate(5.684341886080802e-14 346.98620000000005) translate(461.8227499999999 60.664) scale(0.75) translate(-444.02025 16.928)"></path>
        <path id="path97255" style="font-style:oblique;font-weight:300;font-size:32px;line-height:1;font-family:Raleway;font-variant-ligatures:none;text-align:center;text-anchor:middle" d="m 465.38975,0.192 q -1.088,0 -1.696,-0.576 -0.608,-0.608 -0.608,-1.632 0,-0.352 0.096,-0.8 l 4.352,-20.544 h 1.6 l -4.256,20.064 q -0.032,0.16 -0.064,0.288 0,0.128 0,0.288 0,0.672 0.384,1.056 0.416,0.384 1.184,0.384 0.352,0 0.832,-0.064 0.48,-0.096 0.896,-0.256 v 1.28 q -0.544,0.224 -1.376,0.352 -0.8,0.16 -1.344,0.16 z" stroke-width="0" stroke-linejoin="miter" stroke-miterlimit="2" fill="#f1e0bc" stroke="#f1e0bc" transform="translate(5.684341886080802e-14 346.98620000000005) translate(476.121875 55.84) scale(0.75) translate(-463.08575 23.36)"></path>
        <path id="path97257" style="font-style:oblique;font-weight:300;font-size:32px;line-height:1;font-family:Raleway;font-variant-ligatures:none;text-align:center;text-anchor:middle" d="m 482.62525,-23.36 h 1.6 l -2.272,10.688 q 1.376,-1.952 3.328,-3.104 1.952,-1.152 3.936,-1.152 2.016,0 2.912,1.152 0.896,1.12 0.896,3.168 0,0.672 -0.096,1.44 -0.064,0.768 -0.256,1.6 L 490.65725,0 h -1.6 l 1.952,-9.28 q 0.32,-1.504 0.32,-2.656 0,-3.52 -2.912,-3.52 -0.96,0 -1.984,0.384 -0.992,0.384 -1.952,1.088 -0.928,0.704 -1.728,1.664 -0.8,0.928 -1.312,2.016 L 479.26525,0 h -1.6 z" stroke-width="0" stroke-linejoin="miter" stroke-miterlimit="2" fill="#f1e0bc" stroke="#f1e0bc" transform="translate(5.684341886080802e-14 346.98620000000005) translate(487.05649999999997 55.84) scale(0.75) translate(-477.66525 23.36)"></path>
        <path id="path97259" style="font-style:oblique;font-weight:300;font-size:32px;line-height:1;font-family:Raleway;font-variant-ligatures:none;text-align:center;text-anchor:middle" d="m 502.13675,0.32 q -1.504,0 -2.688,-0.544 -1.152,-0.576 -1.984,-1.536 -0.8,-0.96 -1.216,-2.24 -0.416,-1.28 -0.416,-2.72 0,-1.952 0.736,-3.776 0.768,-1.856 2.112,-3.264 1.344,-1.44 3.136,-2.304 1.824,-0.864 3.936,-0.864 0.992,0 1.92,0.288 0.928,0.288 1.632,0.864 0.736,0.544 1.152,1.376 0.448,0.832 0.448,1.92 0,4.8 -8.704,4.8 -1.024,0 -2.176,-0.032 -1.12,-0.032 -2.496,-0.128 -0.032,0.256 -0.064,0.544 0,0.288 0,0.544 0,1.184 0.288,2.24 0.32,1.056 0.928,1.856 0.64,0.768 1.568,1.248 0.96,0.448 2.208,0.448 0.8,0 1.632,-0.224 0.864,-0.256 1.632,-0.672 0.768,-0.448 1.408,-1.056 0.672,-0.64 1.12,-1.408 l 1.344,0.416 q -0.576,0.96 -1.408,1.728 -0.8,0.768 -1.792,1.344 -0.96,0.544 -2.048,0.832 -1.088,0.32 -2.208,0.32 z m 3.424,-15.936 q -1.504,0 -2.784,0.576 -1.248,0.544 -2.24,1.472 -0.992,0.896 -1.696,2.08 -0.704,1.184 -1.056,2.432 1.344,0.096 2.4,0.128 1.088,0.032 2.112,0.032 1.984,0 3.328,-0.256 1.376,-0.288 2.208,-0.768 0.832,-0.48 1.184,-1.12 0.384,-0.672 0.384,-1.472 0,-0.8 -0.352,-1.376 -0.32,-0.608 -0.864,-0.992 -0.512,-0.384 -1.216,-0.544 -0.704,-0.192 -1.408,-0.192 z" stroke-width="0" stroke-linejoin="miter" stroke-miterlimit="2" fill="#f1e0bc" stroke="#f1e0bc" transform="translate(5.684341886080802e-14 346.98620000000005) translate(500.6821249999999 60.664) scale(0.75) translate(-495.83275 16.928)"></path>
        <path id="path97261" style="font-style:oblique;font-weight:300;font-size:32px;line-height:1;font-family:Raleway;font-variant-ligatures:none;text-align:center;text-anchor:middle" d="m 518.69025,0.32 q -1.376,0 -2.496,-0.576 -1.088,-0.576 -1.856,-1.536 -0.768,-0.96 -1.184,-2.208 -0.384,-1.28 -0.384,-2.688 0,-1.952 0.768,-3.776 0.768,-1.856 2.048,-3.296 1.312,-1.44 2.976,-2.304 1.664,-0.864 3.488,-0.864 1.056,0 1.888,0.32 0.864,0.32 1.536,0.864 0.672,0.512 1.152,1.216 0.48,0.704 0.768,1.504 l 0.768,-3.616 h 1.632 l -3.072,14.336 q -0.064,0.256 -0.064,0.384 0,0.48 0.544,0.48 l -0.32,1.44 q -0.16,0.032 -0.288,0.032 -0.096,0.032 -0.192,0.032 -0.64,0 -0.992,-0.32 -0.32,-0.32 -0.32,-0.832 0,-0.096 0,-0.224 0.032,-0.16 0.064,-0.384 0.064,-0.256 0.128,-0.64 0.064,-0.384 0.192,-0.992 -1.312,1.664 -3.136,2.656 -1.824,0.992 -3.648,0.992 z m 0.576,-1.44 q 0.864,0 1.888,-0.352 1.024,-0.384 1.952,-0.992 0.96,-0.608 1.696,-1.408 0.736,-0.832 1.024,-1.728 l 1.152,-5.472 q -0.128,-0.896 -0.576,-1.696 -0.416,-0.8 -1.088,-1.408 -0.64,-0.608 -1.472,-0.96 -0.832,-0.352 -1.792,-0.352 -1.536,0 -2.912,0.768 -1.376,0.768 -2.432,2.016 -1.024,1.216 -1.664,2.752 -0.608,1.536 -0.608,3.072 0,1.152 0.352,2.208 0.352,1.056 0.992,1.856 0.64,0.768 1.536,1.248 0.896,0.448 1.952,0.448 z" stroke-width="0" stroke-linejoin="miter" stroke-miterlimit="2" fill="#f1e0bc" stroke="#f1e0bc" transform="translate(5.684341886080802e-14 346.98620000000005) translate(513.3852499999999 60.664) scale(0.75) translate(-512.77025 16.928)"></path>
        <path id="path97263" style="font-style:oblique;font-weight:300;font-size:32px;line-height:1;font-family:Raleway;font-variant-ligatures:none;text-align:center;text-anchor:middle" d="m 534.13975,0.192 q -1.088,0 -1.696,-0.576 -0.608,-0.608 -0.608,-1.632 0,-0.352 0.096,-0.8 l 4.352,-20.544 h 1.6 l -4.256,20.064 q -0.032,0.16 -0.064,0.288 0,0.128 0,0.288 0,0.672 0.384,1.056 0.416,0.384 1.184,0.384 0.352,0 0.832,-0.064 0.48,-0.096 0.896,-0.256 v 1.28 q -0.544,0.224 -1.376,0.352 -0.8,0.16 -1.344,0.16 z" stroke-width="0" stroke-linejoin="miter" stroke-miterlimit="2" fill="#f1e0bc" stroke="#f1e0bc" transform="translate(5.684341886080802e-14 346.98620000000005) translate(527.6843749999999 55.84) scale(0.75) translate(-531.83575 23.36)"></path>
        <path id="path97265" style="font-style:oblique;font-weight:300;font-size:32px;line-height:1;font-family:Raleway;font-variant-ligatures:none;text-align:center;text-anchor:middle" d="m 542.90925,0.192 q -1.12,0 -1.856,-0.576 -0.736,-0.576 -0.736,-1.696 0,-0.16 0,-0.32 0.032,-0.192 0.064,-0.384 l 2.688,-12.544 h -2.24 l 0.288,-1.312 h 2.24 l 1.184,-5.696 h 1.6 l -1.184,5.696 h 3.68 l -0.288,1.312 h -3.68 l -2.4,11.264 q -0.224,1.024 -0.224,1.28 0,0.736 0.448,1.12 0.48,0.352 1.152,0.352 0.48,0 0.896,-0.096 0.448,-0.096 0.8,-0.224 0.352,-0.16 0.576,-0.256 0.256,-0.128 0.352,-0.192 l 0.192,1.28 q -0.128,0.096 -0.48,0.256 -0.32,0.16 -0.8,0.352 -0.48,0.16 -1.056,0.256 -0.576,0.128 -1.216,0.128 z" stroke-width="0" stroke-linejoin="miter" stroke-miterlimit="2" fill="#f1e0bc" stroke="#f1e0bc" transform="translate(5.684341886080802e-14 346.98620000000005) translate(534.0454999999998 56.608000000000004) scale(0.75) translate(-540.31725 22.336)"></path>
        <path id="path97267" style="font-style:oblique;font-weight:300;font-size:32px;line-height:1;font-family:Raleway;font-variant-ligatures:none;text-align:center;text-anchor:middle" d="m 553.93775,-23.36 h 1.6 l -2.272,10.688 q 1.376,-1.952 3.328,-3.104 1.952,-1.152 3.936,-1.152 2.016,0 2.912,1.152 0.896,1.12 0.896,3.168 0,0.672 -0.096,1.44 -0.064,0.768 -0.256,1.6 L 561.96975,0 h -1.6 l 1.952,-9.28 q 0.32,-1.504 0.32,-2.656 0,-3.52 -2.912,-3.52 -0.96,0 -1.984,0.384 -0.992,0.384 -1.952,1.088 -0.928,0.704 -1.728,1.664 -0.8,0.928 -1.312,2.016 L 550.57775,0 h -1.6 z" stroke-width="0" stroke-linejoin="miter" stroke-miterlimit="2" fill="#f1e0bc" stroke="#f1e0bc" transform="translate(5.684341886080802e-14 346.98620000000005) translate(540.5408749999999 55.84) scale(0.75) translate(-548.97775 23.36)"></path>
        <path id="path97269" style="font-style:oblique;font-weight:300;font-size:32px;line-height:1;font-family:Raleway;font-variant-ligatures:none;text-align:center;text-anchor:middle" d="m 579.68775,0.32 q -1.824,0 -3.392,-0.64 -1.536,-0.64 -2.496,-1.92 l 0.992,-1.088 q 1.056,1.216 2.272,1.792 1.248,0.576 2.88,0.576 1.152,0 2.112,-0.288 0.992,-0.288 1.696,-0.8 0.736,-0.512 1.12,-1.248 0.416,-0.736 0.416,-1.664 0,-1.216 -1.12,-1.792 -1.12,-0.576 -3.2,-1.12 -1.12,-0.288 -1.952,-0.576 -0.832,-0.288 -1.408,-0.64 -0.544,-0.384 -0.832,-0.896 -0.288,-0.512 -0.288,-1.248 0,-1.376 0.576,-2.432 0.576,-1.088 1.536,-1.792 0.96,-0.736 2.208,-1.088 1.28,-0.384 2.656,-0.384 1.856,0 3.136,0.672 1.312,0.64 1.856,1.664 l -1.056,0.864 q -0.544,-0.96 -1.728,-1.44 -1.152,-0.48 -2.592,-0.48 -0.992,0 -1.888,0.256 -0.896,0.224 -1.6,0.736 -0.672,0.48 -1.088,1.248 -0.416,0.736 -0.416,1.76 0,0.544 0.224,0.928 0.224,0.352 0.64,0.64 0.448,0.256 1.12,0.48 0.672,0.192 1.568,0.416 1.248,0.32 2.208,0.64 0.992,0.32 1.664,0.768 0.704,0.416 1.056,1.024 0.352,0.576 0.352,1.408 0,1.248 -0.544,2.304 -0.544,1.024 -1.504,1.792 -0.96,0.736 -2.304,1.152 -1.312,0.416 -2.88,0.416 z" stroke-width="0" stroke-linejoin="miter" stroke-miterlimit="2" fill="#f1e0bc" stroke="#f1e0bc" transform="translate(5.684341886080802e-14 346.98620000000005) translate(559.1573749999999 60.664) scale(0.75) translate(-573.79975 16.928)"></path>
        <path id="path97271" style="font-style:oblique;font-weight:300;font-size:32px;line-height:1;font-family:Raleway;font-variant-ligatures:none;text-align:center;text-anchor:middle" d="m 593.22175,0.192 q -1.12,0 -1.856,-0.576 -0.736,-0.576 -0.736,-1.696 0,-0.16 0,-0.32 0.032,-0.192 0.064,-0.384 l 2.688,-12.544 h -2.24 l 0.288,-1.312 h 2.24 l 1.184,-5.696 h 1.6 l -1.184,5.696 h 3.68 l -0.288,1.312 h -3.68 l -2.4,11.264 q -0.224,1.024 -0.224,1.28 0,0.736 0.448,1.12 0.48,0.352 1.152,0.352 0.48,0 0.896,-0.096 0.448,-0.096 0.8,-0.224 0.352,-0.16 0.576,-0.256 0.256,-0.128 0.352,-0.192 l 0.192,1.28 q -0.128,0.096 -0.48,0.256 -0.32,0.16 -0.8,0.352 -0.48,0.16 -1.056,0.256 -0.576,0.128 -1.216,0.128 z" stroke-width="0" stroke-linejoin="miter" stroke-miterlimit="2" fill="#f1e0bc" stroke="#f1e0bc" transform="translate(5.684341886080802e-14 346.98620000000005) translate(571.7798749999998 56.608000000000004) scale(0.75) translate(-590.62975 22.336)"></path>
        <path id="path97273" style="font-style:oblique;font-weight:300;font-size:32px;line-height:1;font-family:Raleway;font-variant-ligatures:none;text-align:center;text-anchor:middle" d="m 605.25275,0.32 q -1.376,0 -2.496,-0.576 -1.088,-0.576 -1.856,-1.536 -0.768,-0.96 -1.184,-2.208 -0.384,-1.28 -0.384,-2.688 0,-1.952 0.768,-3.776 0.768,-1.856 2.048,-3.296 1.312,-1.44 2.976,-2.304 1.664,-0.864 3.488,-0.864 1.056,0 1.888,0.32 0.864,0.32 1.536,0.864 0.672,0.512 1.152,1.216 0.48,0.704 0.768,1.504 l 0.768,-3.616 h 1.632 l -3.072,14.336 q -0.064,0.256 -0.064,0.384 0,0.48 0.544,0.48 l -0.32,1.44 q -0.16,0.032 -0.288,0.032 -0.096,0.032 -0.192,0.032 -0.64,0 -0.992,-0.32 -0.32,-0.32 -0.32,-0.832 0,-0.096 0,-0.224 0.032,-0.16 0.064,-0.384 0.064,-0.256 0.128,-0.64 0.064,-0.384 0.192,-0.992 -1.312,1.664 -3.136,2.656 -1.824,0.992 -3.648,0.992 z m 0.576,-1.44 q 0.864,0 1.888,-0.352 1.024,-0.384 1.952,-0.992 0.96,-0.608 1.696,-1.408 0.736,-0.832 1.024,-1.728 l 1.152,-5.472 q -0.128,-0.896 -0.576,-1.696 -0.416,-0.8 -1.088,-1.408 -0.64,-0.608 -1.472,-0.96 -0.832,-0.352 -1.792,-0.352 -1.536,0 -2.912,0.768 -1.376,0.768 -2.432,2.016 -1.024,1.216 -1.664,2.752 -0.608,1.536 -0.608,3.072 0,1.152 0.352,2.208 0.352,1.056 0.992,1.856 0.64,0.768 1.536,1.248 0.896,0.448 1.952,0.448 z" stroke-width="0" stroke-linejoin="miter" stroke-miterlimit="2" fill="#f1e0bc" stroke="#f1e0bc" transform="translate(5.684341886080802e-14 346.98620000000005) translate(578.3071249999998 60.664) scale(0.75) translate(-599.33275 16.928)"></path>
        <path id="path97275" style="font-style:oblique;font-weight:300;font-size:32px;line-height:1;font-family:Raleway;font-variant-ligatures:none;text-align:center;text-anchor:middle" d="m 621.31025,-16.64 h 1.536 l -0.896,4.096 q 1.344,-1.92 3.072,-3.008 1.76,-1.12 3.392,-1.12 0.32,0 0.448,0.032 l -0.32,1.44 q -2.144,0.064 -4,1.344 -1.824,1.248 -2.944,3.456 l -2.208,10.4 h -1.6 z" stroke-width="0" stroke-linejoin="miter" stroke-miterlimit="2" fill="#f1e0bc" stroke="#f1e0bc" transform="translate(5.684341886080802e-14 346.98620000000005) translate(592.1502499999998 60.855999999999995) scale(0.75) translate(-617.79025 16.672)"></path>
        <path id="path97277" style="font-style:oblique;font-weight:300;font-size:32px;line-height:1;font-family:Raleway;font-variant-ligatures:none;text-align:center;text-anchor:middle" d="m 632.22175,0.192 q -1.12,0 -1.856,-0.576 -0.736,-0.576 -0.736,-1.696 0,-0.16 0,-0.32 0.032,-0.192 0.064,-0.384 l 2.688,-12.544 h -2.24 l 0.288,-1.312 h 2.24 l 1.184,-5.696 h 1.6 l -1.184,5.696 h 3.68 l -0.288,1.312 h -3.68 l -2.4,11.264 q -0.224,1.024 -0.224,1.28 0,0.736 0.448,1.12 0.48,0.352 1.152,0.352 0.48,0 0.896,-0.096 0.448,-0.096 0.8,-0.224 0.352,-0.16 0.576,-0.256 0.256,-0.128 0.352,-0.192 l 0.192,1.28 q -0.128,0.096 -0.48,0.256 -0.32,0.16 -0.8,0.352 -0.48,0.16 -1.056,0.256 -0.576,0.128 -1.216,0.128 z" stroke-width="0" stroke-linejoin="miter" stroke-miterlimit="2" fill="#f1e0bc" stroke="#f1e0bc" transform="translate(5.684341886080802e-14 346.98620000000005) translate(601.0298749999997 56.608000000000004) scale(0.75) translate(-629.62975 22.336)"></path>
        <path id="path97279" style="font-style:oblique;font-weight:300;font-size:32px;line-height:1;font-family:Raleway;font-variant-ligatures:none;text-align:center;text-anchor:middle" d="m 643.25025,0.32 q -1.824,0 -3.392,-0.64 -1.536,-0.64 -2.496,-1.92 l 0.992,-1.088 q 1.056,1.216 2.272,1.792 1.248,0.576 2.88,0.576 1.152,0 2.112,-0.288 0.992,-0.288 1.696,-0.8 0.736,-0.512 1.12,-1.248 0.416,-0.736 0.416,-1.664 0,-1.216 -1.12,-1.792 -1.12,-0.576 -3.2,-1.12 -1.12,-0.288 -1.952,-0.576 -0.832,-0.288 -1.408,-0.64 -0.544,-0.384 -0.832,-0.896 -0.288,-0.512 -0.288,-1.248 0,-1.376 0.576,-2.432 0.576,-1.088 1.536,-1.792 0.96,-0.736 2.208,-1.088 1.28,-0.384 2.656,-0.384 1.856,0 3.136,0.672 1.312,0.64 1.856,1.664 l -1.056,0.864 q -0.544,-0.96 -1.728,-1.44 -1.152,-0.48 -2.592,-0.48 -0.992,0 -1.888,0.256 -0.896,0.224 -1.6,0.736 -0.672,0.48 -1.088,1.248 -0.416,0.736 -0.416,1.76 0,0.544 0.224,0.928 0.224,0.352 0.64,0.64 0.448,0.256 1.12,0.48 0.672,0.192 1.568,0.416 1.248,0.32 2.208,0.64 0.992,0.32 1.664,0.768 0.704,0.416 1.056,1.024 0.352,0.576 0.352,1.408 0,1.248 -0.544,2.304 -0.544,1.024 -1.504,1.792 -0.96,0.736 -2.304,1.152 -1.312,0.416 -2.88,0.416 z" stroke-width="0" stroke-linejoin="miter" stroke-miterlimit="2" fill="#f1e0bc" stroke="#f1e0bc" transform="translate(5.684341886080802e-14 346.98620000000005) translate(606.8292499999998 60.664) scale(0.75) translate(-637.36225 16.928)"></path>
        <path id="path97281" style="font-style:oblique;font-weight:300;font-size:32px;line-height:1;font-family:Raleway;font-variant-ligatures:none;text-align:center;text-anchor:middle" d="m 666.06275,-23.36 h 1.6 l -2.272,10.688 q 1.376,-1.952 3.328,-3.104 1.952,-1.152 3.936,-1.152 2.016,0 2.912,1.152 0.896,1.12 0.896,3.168 0,0.672 -0.096,1.44 -0.064,0.768 -0.256,1.6 L 674.09475,0 h -1.6 l 1.952,-9.28 q 0.32,-1.504 0.32,-2.656 0,-3.52 -2.912,-3.52 -0.96,0 -1.984,0.384 -0.992,0.384 -1.952,1.088 -0.928,0.704 -1.728,1.664 -0.8,0.928 -1.312,2.016 L 662.70275,0 h -1.6 z" stroke-width="0" stroke-linejoin="miter" stroke-miterlimit="2" fill="#f1e0bc" stroke="#f1e0bc" transform="translate(5.684341886080802e-14 346.98620000000005) translate(624.6346249999998 55.84) scale(0.75) translate(-661.10275 23.36)"></path>
        <path id="path97283" style="font-style:oblique;font-weight:300;font-size:32px;line-height:1;font-family:Raleway;font-variant-ligatures:none;text-align:center;text-anchor:middle" d="m 685.57425,0.32 q -1.504,0 -2.688,-0.544 -1.152,-0.576 -1.984,-1.536 -0.8,-0.96 -1.216,-2.24 -0.416,-1.28 -0.416,-2.72 0,-1.952 0.736,-3.776 0.768,-1.856 2.112,-3.264 1.344,-1.44 3.136,-2.304 1.824,-0.864 3.936,-0.864 0.992,0 1.92,0.288 0.928,0.288 1.632,0.864 0.736,0.544 1.152,1.376 0.448,0.832 0.448,1.92 0,4.8 -8.704,4.8 -1.024,0 -2.176,-0.032 -1.12,-0.032 -2.496,-0.128 -0.032,0.256 -0.064,0.544 0,0.288 0,0.544 0,1.184 0.288,2.24 0.32,1.056 0.928,1.856 0.64,0.768 1.568,1.248 0.96,0.448 2.208,0.448 0.8,0 1.632,-0.224 0.864,-0.256 1.632,-0.672 0.768,-0.448 1.408,-1.056 0.672,-0.64 1.12,-1.408 l 1.344,0.416 q -0.576,0.96 -1.408,1.728 -0.8,0.768 -1.792,1.344 -0.96,0.544 -2.048,0.832 -1.088,0.32 -2.208,0.32 z m 3.424,-15.936 q -1.504,0 -2.784,0.576 -1.248,0.544 -2.24,1.472 -0.992,0.896 -1.696,2.08 -0.704,1.184 -1.056,2.432 1.344,0.096 2.4,0.128 1.088,0.032 2.112,0.032 1.984,0 3.328,-0.256 1.376,-0.288 2.208,-0.768 0.832,-0.48 1.184,-1.12 0.384,-0.672 0.384,-1.472 0,-0.8 -0.352,-1.376 -0.32,-0.608 -0.864,-0.992 -0.512,-0.384 -1.216,-0.544 -0.704,-0.192 -1.408,-0.192 z" stroke-width="0" stroke-linejoin="miter" stroke-miterlimit="2" fill="#f1e0bc" stroke="#f1e0bc" transform="translate(5.684341886080802e-14 346.98620000000005) translate(638.2602499999998 60.664) scale(0.75) translate(-679.27025 16.928)"></path>
        <path id="path97285" style="font-style:oblique;font-weight:300;font-size:32px;line-height:1;font-family:Raleway;font-variant-ligatures:none;text-align:center;text-anchor:middle" d="m 699.24775,-16.64 h 1.536 l -0.896,4.096 q 1.344,-1.92 3.072,-3.008 1.76,-1.12 3.392,-1.12 0.32,0 0.448,0.032 l -0.32,1.44 q -2.144,0.064 -4,1.344 -1.824,1.248 -2.944,3.456 l -2.208,10.4 h -1.6 z" stroke-width="0" stroke-linejoin="miter" stroke-miterlimit="2" fill="#f1e0bc" stroke="#f1e0bc" transform="translate(5.684341886080802e-14 346.98620000000005) translate(650.6033749999998 60.855999999999995) scale(0.75) translate(-695.72775 16.672)"></path>
        <path id="path97287" style="font-style:oblique;font-weight:300;font-size:32px;line-height:1;font-family:Raleway;font-variant-ligatures:none;text-align:center;text-anchor:middle" d="m 712.38675,0.32 q -1.504,0 -2.688,-0.544 -1.152,-0.576 -1.984,-1.536 -0.8,-0.96 -1.216,-2.24 -0.416,-1.28 -0.416,-2.72 0,-1.952 0.736,-3.776 0.768,-1.856 2.112,-3.264 1.344,-1.44 3.136,-2.304 1.824,-0.864 3.936,-0.864 0.992,0 1.92,0.288 0.928,0.288 1.632,0.864 0.736,0.544 1.152,1.376 0.448,0.832 0.448,1.92 0,4.8 -8.704,4.8 -1.024,0 -2.176,-0.032 -1.12,-0.032 -2.496,-0.128 -0.032,0.256 -0.064,0.544 0,0.288 0,0.544 0,1.184 0.288,2.24 0.32,1.056 0.928,1.856 0.64,0.768 1.568,1.248 0.96,0.448 2.208,0.448 0.8,0 1.632,-0.224 0.864,-0.256 1.632,-0.672 0.768,-0.448 1.408,-1.056 0.672,-0.64 1.12,-1.408 l 1.344,0.416 q -0.576,0.96 -1.408,1.728 -0.8,0.768 -1.792,1.344 -0.96,0.544 -2.048,0.832 -1.088,0.32 -2.208,0.32 z m 3.424,-15.936 q -1.504,0 -2.784,0.576 -1.248,0.544 -2.24,1.472 -0.992,0.896 -1.696,2.08 -0.704,1.184 -1.056,2.432 1.344,0.096 2.4,0.128 1.088,0.032 2.112,0.032 1.984,0 3.328,-0.256 1.376,-0.288 2.208,-0.768 0.832,-0.48 1.184,-1.12 0.384,-0.672 0.384,-1.472 0,-0.8 -0.352,-1.376 -0.32,-0.608 -0.864,-0.992 -0.512,-0.384 -1.216,-0.544 -0.704,-0.192 -1.408,-0.192 z" stroke-width="0" stroke-linejoin="miter" stroke-miterlimit="2" fill="#f1e0bc" stroke="#f1e0bc" transform="translate(5.684341886080802e-14 346.98620000000005) translate(658.3696249999998 60.664) scale(0.75) translate(-706.08275 16.928)"></path>
      </g>
      <g id="title" style="font-style:normal;font-weight:300;font-size:72px;line-height:1;font-family:'Uni Neue';font-variant-ligatures:none;text-align:center;text-anchor:middle" transform="translate(0 0)">
        <path id="path97290" style="font-style:normal;font-weight:300;font-size:72px;line-height:1;font-family:'Uni Neue';font-variant-ligatures:none;text-align:center;text-anchor:middle" d="m 296.5085,-16.128 v -18.648 c 0,-10.368 -7.416,-17.424 -18.72,-17.424 -11.376,0 -18.792,7.056 -18.792,17.424 v 18.648 c 0,9.72 7.488,16.848 18.792,16.848 11.232,0 18.72,-7.128 18.72,-16.848 z m -35.136,0 v -18.648 c 0,-9.072 6.336,-15.192 16.416,-15.192 10.008,0 16.344,6.12 16.344,15.192 v 18.648 c 0,8.424 -6.408,14.544 -16.344,14.544 -10.008,0 -16.416,-6.12 -16.416,-14.544 z" stroke-width="0" stroke-linejoin="miter" stroke-miterlimit="2" fill="#f1e0bc" stroke="#f1e0bc" transform="translate(0 280.2718) translate(317.06993005000004 62.006) scale(0.77) translate(-258.9965 52.2)"></path>
        <path id="path97292" style="font-style:normal;font-weight:300;font-size:72px;line-height:1;font-family:'Uni Neue';font-variant-ligatures:none;text-align:center;text-anchor:middle" d="m 310.625,0 c 0.216,0 0.432,-0.144 0.432,-0.432 l -0.072,-47.304 v -0.072 l 19.728,34.92 c 0.144,0.144 0.36,0.288 0.576,0.288 h 1.152 c 0.216,0 0.504,-0.144 0.576,-0.288 l 19.728,-34.92 v 0.072 l -0.072,47.304 c 0,0.288 0.216,0.432 0.432,0.432 h 1.512 c 0.288,0 0.504,-0.144 0.504,-0.432 v -50.616 c 0,-0.288 -0.216,-0.432 -0.504,-0.432 h -2.016 c -0.216,0 -0.432,0.072 -0.504,0.288 l -20.232,35.64 -20.16,-35.64 c -0.144,-0.216 -0.36,-0.288 -0.576,-0.288 h -2.016 c -0.288,0 -0.504,0.144 -0.504,0.432 v 50.616 c 0,0.288 0.216,0.432 0.504,0.432 z" stroke-width="0" stroke-linejoin="miter" stroke-miterlimit="2" fill="#f1e0bc" stroke="#f1e0bc" transform="translate(0 280.2718) translate(355.27155504999996 62.5604) scale(0.77) translate(-308.609 51.48)"></path>
        <path id="path97294" style="font-style:normal;font-weight:300;font-size:72px;line-height:1;font-family:'Uni Neue';font-variant-ligatures:none;text-align:center;text-anchor:middle" d="m 371.52575,-51.048 c 0,-0.288 -0.216,-0.432 -0.432,-0.432 h -1.512 c -0.288,0 -0.504,0.144 -0.504,0.432 v 50.616 c 0,0.288 0.216,0.432 0.504,0.432 h 1.512 c 0.216,0 0.432,-0.144 0.432,-0.432 z" stroke-width="0" stroke-linejoin="miter" stroke-miterlimit="2" fill="#f1e0bc" stroke="#f1e0bc" transform="translate(0 280.2718) translate(401.8324925499999 62.5604) scale(0.77) translate(-369.07775 51.48)"></path>
        <path id="path97296" style="font-style:normal;font-weight:300;font-size:72px;line-height:1;font-family:'Uni Neue';font-variant-ligatures:none;text-align:center;text-anchor:middle" d="m 412.091,0 c 0.216,0 0.36,-0.144 0.432,-0.36 11.952,-37.08 13.464,-41.904 14.832,-46.656 h 0.072 l 14.832,46.656 c 0.072,0.216 0.216,0.36 0.504,0.36 h 1.944 c 0.216,0 0.36,-0.144 0.432,-0.36 l 14.76,-50.616 c 0.072,-0.288 -0.144,-0.504 -0.432,-0.504 h -1.584 c -0.288,0 -0.432,0.144 -0.504,0.36 -10.944,38.16 -12.312,43.2 -13.68,48.096 l -14.976,-47.088 c -0.144,-0.216 -0.216,-0.432 -0.504,-0.432 h -1.656 c -0.216,0 -0.36,0.216 -0.432,0.432 -11.952,37.008 -13.464,42.264 -14.976,47.088 h -0.072 l -13.68,-48.096 c -0.072,-0.216 -0.144,-0.36 -0.432,-0.36 h -1.656 c -0.288,0 -0.432,0.216 -0.36,0.504 l 14.688,50.616 c 0.144,0.216 0.216,0.36 0.504,0.36 z" stroke-width="0" stroke-linejoin="miter" stroke-miterlimit="2" fill="#e79840" stroke="#e79840" transform="translate(0 280.2718) translate(421.74384554999995 62.5604) scale(0.77) translate(-394.93665 51.48)"></path>
        <path id="path97298" style="font-style:normal;font-weight:300;font-size:72px;line-height:1;font-family:'Uni Neue';font-variant-ligatures:none;text-align:center;text-anchor:middle" d="m 470.38513,-25.128 h 24.62399 c 0.288,0 0.504,-0.144 0.504,-0.432 v -1.368 c 0,-0.288 -0.216,-0.432 -0.504,-0.432 h -24.62399 v -21.888 h 26.13599 c 0.288,0 0.432,-0.144 0.432,-0.432 v -1.368 c 0,-0.288 -0.144,-0.432 -0.432,-0.432 h -28.08 c -0.288,0 -0.504,0.144 -0.504,0.432 v 50.616 c 0,0.288 0.216,0.432 0.504,0.432 h 29.16001 c 0.28799,0 0.43199,-0.144 0.43199,-0.432 V -1.8 c 0,-0.288 -0.144,-0.432 -0.43199,-0.432 h -27.216 z" stroke-width="0" stroke-linejoin="miter" stroke-miterlimit="2" fill="#e79840" stroke="#e79840" transform="translate(0 280.2718) translate(477.95420744999996 62.5604) scale(0.77) translate(-467.93712 51.48)"></path>
        <path id="path97300" style="font-style:normal;font-weight:300;font-size:72px;line-height:1;font-family:'Uni Neue';font-variant-ligatures:none;text-align:center;text-anchor:middle" d="m 535.65313,0 c 0.288,0 0.43199,-0.144 0.43199,-0.432 V -1.8 c 0,-0.288 -0.14399,-0.432 -0.43199,-0.432 h -24.768 v -48.816 c 0,-0.288 -0.14401,-0.432 -0.43201,-0.432 h -1.512 c -0.288,0 -0.504,0.144 -0.504,0.432 v 50.616 c 0,0.288 0.216,0.432 0.504,0.432 z" stroke-width="0" stroke-linejoin="miter" stroke-miterlimit="2" fill="#e79840" stroke="#e79840" transform="translate(0 280.2718) translate(509.13920744999996 62.5604) scale(0.77) translate(-508.43712 51.48)"></path>
        <path id="path97302" style="font-style:normal;font-weight:300;font-size:72px;line-height:1;font-family:'Uni Neue';font-variant-ligatures:none;text-align:center;text-anchor:middle" d="m 571.23125,0 c 0.288,0 0.432,-0.144 0.432,-0.432 V -1.8 c 0,-0.288 -0.144,-0.432 -0.432,-0.432 h -24.768 v -48.816 c 0,-0.288 -0.144,-0.432 -0.432,-0.432 h -1.512 c -0.288,0 -0.504,0.144 -0.504,0.432 v 50.616 c 0,0.288 0.216,0.432 0.504,0.432 z" stroke-width="0" stroke-linejoin="miter" stroke-miterlimit="2" fill="#e79840" stroke="#e79840" transform="translate(0 280.2718) translate(536.53436755 62.5604) scale(0.77) translate(-544.01525 51.48)"></path>
        <path id="path97304" style="font-style:normal;font-weight:300;font-size:72px;line-height:1;font-family:'Uni Neue';font-variant-ligatures:none;text-align:center;text-anchor:middle" d="m 611.12937,-39.024 c 0,-6.696 -4.03199,-12.456 -15.696,-12.456 h -15.33599 c -0.288,0 -0.504,0.144 -0.504,0.432 v 50.616 c 0,0.288 0.216,0.432 0.504,0.432 h 15.33599 c 11.52001,0 17.784,-5.256 17.784,-14.256 0,-7.2 -3.74399,-12.024 -10.656,-13.392 5.256,-1.512 8.568,-5.544 8.568,-11.376 z m -29.08799,36.792 v -24.264 h 14.68799 c 9.79201,0 14.112,4.896 14.112,12.24 0,7.56 -5.112,12.024 -15.408,12.024 z m 26.63999,-36.792 c 0,6.552 -4.464,10.296 -11.952,10.296 h -14.68799 v -20.52 h 13.39199 c 10.296,0 13.248,4.896 13.248,10.224 z" stroke-width="0" stroke-linejoin="miter" stroke-miterlimit="2" fill="#e79840" stroke="#e79840" transform="translate(0 280.2718) translate(563.92952765 62.5604) scale(0.77) translate(-579.59338 51.48)"></path>
        <path id="path97306" style="font-style:normal;font-weight:300;font-size:72px;line-height:1;font-family:'Uni Neue';font-variant-ligatures:none;text-align:center;text-anchor:middle" d="m 626.6195,-25.128 h 24.624 c 0.288,0 0.504,-0.144 0.504,-0.432 v -1.368 c 0,-0.288 -0.216,-0.432 -0.504,-0.432 h -24.624 v -21.888 h 26.136 c 0.288,0 0.432,-0.144 0.432,-0.432 v -1.368 c 0,-0.288 -0.144,-0.432 -0.432,-0.432 h -28.08 c -0.288,0 -0.504,0.144 -0.504,0.432 v 50.616 c 0,0.288 0.216,0.432 0.504,0.432 h 29.16 c 0.288,0 0.432,-0.144 0.432,-0.432 V -1.8 c 0,-0.288 -0.144,-0.432 -0.432,-0.432 h -27.216 z" stroke-width="0" stroke-linejoin="miter" stroke-miterlimit="2" fill="#e79840" stroke="#e79840" transform="translate(0 280.2718) translate(598.2546800499999 62.5604) scale(0.77) translate(-624.1715 51.48)"></path>
        <path id="path97308" style="font-style:normal;font-weight:300;font-size:72px;line-height:1;font-family:'Uni Neue';font-variant-ligatures:none;text-align:center;text-anchor:middle" d="m 667.1195,-51.048 c 0,-0.288 -0.216,-0.432 -0.432,-0.432 h -1.512 c -0.288,0 -0.504,0.144 -0.504,0.432 v 50.616 c 0,0.288 0.216,0.432 0.504,0.432 h 1.512 c 0.216,0 0.432,-0.144 0.432,-0.432 z" stroke-width="0" stroke-linejoin="miter" stroke-miterlimit="2" fill="#e79840" stroke="#e79840" transform="translate(0 280.2718) translate(629.4396800499999 62.5604) scale(0.77) translate(-664.6715 51.48)"></path>
        <path id="path97310" style="font-style:normal;font-weight:300;font-size:72px;line-height:1;font-family:'Uni Neue';font-variant-ligatures:none;text-align:center;text-anchor:middle" d="m 683.14062,0 c 0.216,0 0.43201,-0.144 0.43201,-0.432 l -0.072,-47.16 31.176,47.304 c 0.072,0.216 0.35999,0.288 0.57599,0.288 h 1.72801 c 0.288,0 0.504,-0.144 0.504,-0.432 v -50.616 c 0,-0.288 -0.216,-0.432 -0.504,-0.432 h -1.44001 c -0.288,0 -0.504,0.144 -0.504,0.432 l 0.072,47.304 -31.17599,-47.448 c -0.072,-0.216 -0.36,-0.288 -0.50401,-0.288 h -1.79999 c -0.288,0 -0.504,0.144 -0.504,0.432 v 50.616 c 0,0.288 0.216,0.432 0.504,0.432 z" stroke-width="0" stroke-linejoin="miter" stroke-miterlimit="2" fill="#e79840" stroke="#e79840" transform="translate(0 280.2718) translate(642.1085901499998 62.5604) scale(0.77) translate(-681.12463 51.48)"></path>
        <path id="path97312" style="font-style:normal;font-weight:300;font-size:72px;line-height:1;font-family:'Uni Neue';font-variant-ligatures:none;text-align:center;text-anchor:middle" d="m 765.09237,-6.192 c 0.144,-0.144 0.216,-0.36 0.216,-0.576 v -19.368 c 0,-0.288 -0.216,-0.432 -0.43199,-0.432 h -17.06401 c -0.288,0 -0.432,0.144 -0.432,0.432 v 1.368 c 0,0.288 0.144,0.432 0.432,0.432 h 15.12 v 16.992 c -4.24799,3.816 -9.648,5.76 -15.336,5.76 -10.22399,0 -15.552,-6.12 -15.552,-14.832 v -18.72 c 0,-8.712 5.25601,-14.832 15.336,-14.832 5.47201,0 11.01601,1.872 15.192,5.256 0.288,0.144 0.504,0.072 0.648,-0.144 l 0.79201,-1.08 c 0.216,-0.216 0.216,-0.504 -0.072,-0.648 -4.75201,-3.744 -10.72801,-5.616 -16.56001,-5.616 -11.232,0 -17.712,6.912 -17.712,17.064 v 18.72 c 0,10.08 6.552,17.136 17.928,17.136 6.48,0 12.672,-2.304 17.496,-6.912 z" stroke-width="0" stroke-linejoin="miter" stroke-miterlimit="2" fill="#e79840" stroke="#e79840" transform="translate(0 280.2718) translate(679.4872699499998 62.006) scale(0.77) translate(-729.66837 52.2)"></path>
      </g>
      <image xlink:href="" id="icon" x="0" y="0" style="display: none;"></image>
    </g>
  </g>
</svg>